<svg width="21" height="21" viewBox="0 0 21 21" fill="none" xmlns="http://www.w3.org/2000/svg">
<path d="M6.8429 12.6525L5.83939 16.596C5.53809 17.7801 6.80464 18.764 7.93266 18.2223L9.62386 17.4101C10.1759 17.145 10.8241 17.145 11.3761 17.4101L13.0673 18.2223C14.1954 18.764 15.4619 17.7801 15.1606 16.596L14.1571 12.6525C13.6493 13.0147 13.0635 13.2813 12.4272 13.4259C11.1596 13.7139 9.84041 13.7139 8.57284 13.4259C7.93651 13.2813 7.35074 13.0147 6.8429 12.6525Z" fill="#D0D0D9"/>
<path d="M5.0355 6.26695C5.44721 4.56703 6.81767 3.23972 8.57284 2.84098C9.84041 2.55301 11.1596 2.55301 12.4272 2.84098C14.1823 3.23972 15.5528 4.56704 15.9645 6.26695C16.2618 7.49461 16.2618 8.77226 15.9645 9.99992C15.5528 11.6998 14.1823 13.0271 12.4272 13.4259C11.1596 13.7139 9.84041 13.7139 8.57284 13.4259C6.81767 13.0271 5.44721 11.6998 5.0355 9.99992C4.73817 8.77226 4.73817 7.49461 5.0355 6.26695Z" fill="#D0D0D9"/>
<path d="M12.4272 13.4259C13.0635 13.2813 13.6493 13.0147 14.1571 12.6525L15.1606 16.596C15.4619 17.7801 14.1954 18.764 13.0673 18.2223L11.3761 17.4101C10.8241 17.145 10.1759 17.145 9.62386 17.4101L7.93266 18.2223C6.80464 18.764 5.53809 17.7801 5.83939 16.596L6.8429 12.6525C7.35074 13.0147 7.93651 13.2813 8.57284 13.4259M12.4272 13.4259C11.1596 13.7139 9.84041 13.7139 8.57284 13.4259M12.4272 13.4259C14.1823 13.0271 15.5528 11.6998 15.9645 9.99992C16.2618 8.77226 16.2618 7.49461 15.9645 6.26695C15.5528 4.56704 14.1823 3.23972 12.4272 2.84098C11.1596 2.55301 9.84041 2.55301 8.57284 2.84098C6.81767 3.23972 5.44721 4.56703 5.0355 6.26695C4.73817 7.49461 4.73817 8.77226 5.0355 9.99992C5.44721 11.6998 6.81767 13.0271 8.57284 13.4259" stroke="#616161" stroke-width="1.5"/>
</svg>
